<svg version="1.1" id="Layer_1" xmlns="http://www.w3.org/2000/svg" xmlns:xlink="http://www.w3.org/1999/xlink" x="0px" y="0px"
	 width="100%" viewBox="0 0 200 200" enable-background="new 0 0 200 200" xml:space="preserve">
<path fill="#F28C41" opacity="1.000000" stroke="none" 
	d="
M1.308036,22.300907 
	C1.000000,15.678148 1.064662,9.355181 0.955514,3.035214 
	C0.927472,1.411534 1.113963,0.579109 2.963010,0.978188 
	C3.598849,1.115420 4.289218,1.000000 4.954677,1.000000 
	C69.005013,1.000000 133.055435,1.041138 197.105423,0.891855 
	C200.725311,0.883418 201.269730,1.864552 201.083054,5.095982 
	C200.776520,10.401937 201.000000,15.738512 201.000000,21.531088 
	C199.391525,24.101456 197.066040,24.354317 194.702774,24.322968 
	C171.412628,24.014015 148.104660,25.351824 124.830421,23.575691 
	C123.164116,23.448528 121.310089,23.120079 119.899162,23.904877 
	C116.126091,26.003578 113.353073,24.368202 110.216095,21.824310 
	C100.077301,21.178640 90.339951,20.010954 80.692261,22.425117 
	C79.037766,22.839127 77.685555,23.724009 76.337402,24.743969 
	C74.326683,26.265203 71.854210,26.606304 69.725090,25.450289 
	C67.040482,23.992672 64.375954,24.181732 61.528965,24.229538 
	C43.401806,24.533922 25.271933,24.403805 7.143064,24.314728 
	C5.161121,24.304991 3.102381,24.315979 1.308036,22.300907 
z"/>
<path fill="#EC6332" opacity="1.000000" stroke="none" 
	d="
M200.672821,181.680939 
	C201.000000,187.656204 200.927628,193.313904 201.045395,198.967651 
	C201.079422,200.600662 200.875000,201.416595 199.034134,201.021698 
	C198.397964,200.885239 197.707932,201.000000 197.042496,201.000000 
	C132.994370,201.000000 68.946136,200.959091 4.898349,201.107697 
	C1.286618,201.116074 0.696943,200.149643 0.919098,196.907333 
	C1.236761,192.271057 1.000000,187.596786 1.000000,182.469376 
	C3.189415,179.231339 6.335951,179.652084 9.273929,179.639664 
	C30.540825,179.549698 51.808018,179.623734 73.075104,179.591049 
	C76.597038,179.585648 80.100266,179.561951 83.198883,176.603455 
	C85.163101,174.099533 87.134033,174.867615 89.113434,175.706467 
	C90.735580,176.393936 92.285812,177.240280 94.314819,178.001984 
	C95.745743,178.432648 96.835083,178.522888 98.276901,178.946533 
	C98.883987,179.300247 99.105927,179.480179 99.648109,179.948761 
	C103.114555,181.287521 106.541420,181.521484 109.556396,180.823166 
	C114.679985,179.636459 119.772934,179.613190 124.916885,179.609802 
	C147.210815,179.595093 169.504883,179.558167 191.798553,179.647064 
	C194.711609,179.658676 197.858917,179.010010 200.672821,181.680939 
z"/>
<path fill="#F08740" opacity="1.000000" stroke="none" 
	d="
M109.711075,19.261436 
	C113.489624,21.523609 117.019066,22.080595 121.487885,21.244463 
	C125.733215,20.450148 130.353668,21.934147 134.811295,21.954638 
	C156.561371,22.054628 178.312149,21.999981 200.531342,22.000019 
	C201.000000,30.020899 201.000000,38.041798 201.000000,46.531349 
	C199.265991,49.274815 196.746017,49.310123 194.241913,49.346283 
	C186.783905,49.453964 179.324310,49.444931 171.867233,49.369186 
	C168.118011,49.331104 164.621414,49.934677 161.031158,52.117744 
	C159.805450,52.452560 158.965942,52.473568 157.720093,52.497833 
	C157.045486,52.519135 156.776810,52.532455 156.105057,52.570267 
	C155.167099,52.537846 154.653809,52.400604 153.822937,51.991806 
	C153.284805,51.643620 153.086349,51.484745 152.633591,51.052200 
	C149.707184,46.860577 145.253784,45.915627 140.944626,44.070366 
	C140.364807,43.917416 140.138824,43.833477 139.599487,43.569221 
	C138.104187,42.284779 137.087982,40.958115 135.091614,40.373672 
	C134.578354,40.094349 134.392166,39.949677 133.999054,39.519604 
	C132.046860,34.976597 127.643913,36.062283 124.170204,34.523895 
	C123.638847,34.332642 123.438972,34.230770 122.980713,33.918755 
	C122.583244,33.542347 122.444160,33.376072 122.128693,32.958733 
	C121.735764,32.403751 121.490150,32.126884 120.907837,31.869146 
	C120.410286,31.859186 120.201271,31.874884 119.660698,31.877880 
	C118.869171,31.793781 118.426155,31.662809 117.671356,31.314919 
	C115.059540,27.325771 110.442863,26.743774 107.272003,23.617077 
	C106.912224,21.403782 108.072517,20.404524 109.711075,19.261436 
z"/>
<path fill="#EC6835" opacity="1.000000" stroke="none" 
	d="
M85.135269,175.542236 
	C86.259766,179.802292 84.392426,181.357590 80.712967,181.566315 
	C78.561577,181.688339 76.412804,181.977951 74.262589,181.980637 
	C50.154194,182.010864 26.045748,181.999893 1.468657,182.000000 
	C1.000000,173.979095 1.000000,165.958191 1.000000,157.468643 
	C2.715379,154.709854 5.225116,154.730759 7.723956,154.649033 
	C16.630127,154.357803 25.549013,155.063446 34.455124,153.991714 
	C38.259926,153.533844 42.060699,156.687134 46.387215,154.216339 
	C49.957848,153.540253 52.786480,154.846848 56.057518,155.860748 
	C56.683411,155.956619 56.932377,156.006363 57.537094,156.187134 
	C58.109447,156.439636 58.326046,156.561066 59.070541,157.166290 
	C60.404579,159.511993 62.006641,159.958359 64.150650,160.089584 
	C64.688515,160.226776 64.897964,160.299408 65.401299,160.522491 
	C66.575020,161.199249 67.164024,162.115417 68.442093,162.583313 
	C68.934708,162.724579 69.132858,162.785217 69.625580,162.955261 
	C70.500282,163.311447 71.034492,163.644913 71.862465,164.101898 
	C72.484352,164.493820 72.810776,164.753479 73.336212,165.252335 
	C73.948410,165.890671 74.206673,166.427063 74.917648,166.925339 
	C75.360687,167.107529 75.547440,167.165909 76.012634,167.335846 
	C76.657242,167.627701 77.003937,167.840195 77.581863,168.271118 
	C77.971489,168.615829 78.113792,168.768677 78.426132,169.180466 
	C79.338959,170.520020 80.350510,171.153214 81.989075,171.370728 
	C82.517509,171.563354 82.721535,171.667892 83.193069,171.995636 
	C84.059631,173.213318 85.149094,173.913208 85.135269,175.542236 
z"/>
<path fill="#F08741" opacity="1.000000" stroke="none" 
	d="
M109.580551,19.004311 
	C109.463066,20.191334 108.926605,21.380760 108.157494,22.803602 
	C105.428352,25.905369 101.203377,23.381302 98.293739,26.218668 
	C97.483887,26.635185 96.994049,26.791330 96.116585,26.939201 
	C92.888329,26.100342 89.801170,27.624975 86.663025,26.187202 
	C83.922874,27.590279 82.226440,30.282883 78.678856,29.540150 
	C77.288765,29.249115 77.080154,31.355743 76.577354,32.922882 
	C75.766037,35.528992 73.328201,35.904110 71.674637,37.657753 
	C71.239189,38.030922 71.044151,38.152588 70.522980,38.372505 
	C68.884903,38.788208 67.705673,39.342571 66.587585,40.637199 
	C66.208115,41.038780 66.036148,41.179665 65.571915,41.479713 
	C63.283520,41.939674 61.689213,42.902878 60.319267,44.815861 
	C59.984947,45.262257 59.833260,45.429821 59.418789,45.817627 
	C58.962006,46.161732 58.768013,46.285595 58.260670,46.558319 
	C57.727776,46.780315 57.508224,46.853451 56.951195,46.995274 
	C55.148853,47.052856 54.024048,47.755203 52.728893,48.961983 
	C52.168171,49.232555 51.924152,49.305771 51.292156,49.402668 
	C50.100945,49.427891 49.311771,49.344109 48.203945,48.837166 
	C45.638962,47.036934 43.074635,47.388309 40.603615,47.385757 
	C29.938162,47.374741 19.272331,47.438915 8.607413,47.341419 
	C6.166123,47.319103 3.527300,47.748478 1.295124,45.288433 
	C1.000000,37.645748 1.000000,30.291496 1.000000,22.468622 
	C19.779369,21.999954 38.558739,22.001415 57.338108,21.998154 
	C59.992126,21.997694 62.661629,22.159788 65.166382,20.946362 
	C66.221733,20.435095 67.674377,19.841040 68.411018,20.905260 
	C71.543297,25.430479 74.033363,23.858595 77.073059,20.673788 
	C78.098289,19.599615 80.502327,19.756477 82.298981,19.537741 
	C83.262177,19.420471 84.572662,20.154350 85.216721,19.730186 
	C90.944412,15.958056 96.574829,19.184370 102.258911,19.660698 
	C104.525620,19.850649 106.858719,19.248356 109.580551,19.004311 
z"/>
<path fill="#EC6835" opacity="1.000000" stroke="none" 
	d="
M201.000000,181.533875 
	C174.216766,182.000000 147.433044,181.912048 120.650642,182.062912 
	C114.096306,182.099838 107.533974,182.793594 101.000755,183.441772 
	C98.533798,183.686539 98.123726,182.518036 98.030594,180.263565 
	C99.084587,178.047150 100.924370,178.624847 102.509903,178.489304 
	C105.176857,178.261276 107.867470,178.161743 110.095818,175.677765 
	C110.568932,175.283600 110.774391,175.146515 111.303513,174.833466 
	C111.844437,174.544830 112.061691,174.432190 112.613541,174.181152 
	C113.175713,173.978256 113.403282,173.913773 113.972862,173.788452 
	C115.762260,173.637924 117.343361,173.868027 118.300163,171.880035 
	C119.250641,170.799545 120.225700,170.355759 121.545433,169.913193 
	C122.214523,169.715149 122.599106,169.630188 123.277466,169.518127 
	C123.761429,169.416901 123.956520,169.365509 124.443237,169.203766 
	C127.387756,167.385330 130.595245,166.574265 132.965790,163.814636 
	C133.273254,163.308014 133.399719,163.103394 133.756348,162.613083 
	C134.510696,161.776077 135.124283,161.345825 136.136292,160.800583 
	C137.906525,159.726089 139.390213,159.077164 141.543518,159.609680 
	C142.220322,159.825882 142.483047,159.942856 143.102753,160.308044 
	C148.948318,164.946854 155.420502,164.700836 161.925522,164.635269 
	C172.390717,164.529785 182.858444,164.537430 193.324112,164.654709 
	C195.764008,164.682053 198.378815,164.314651 200.678436,166.686218 
	C201.000000,171.689255 201.000000,176.378510 201.000000,181.533875 
z"/>
<path fill="#EE803C" opacity="1.000000" stroke="none" 
	d="
M158.816650,51.305191 
	C162.766678,47.071457 167.532166,46.799450 172.633499,46.932316 
	C181.770950,47.170311 190.919037,46.999550 200.531342,46.999817 
	C201.000000,59.687561 201.000000,72.375122 201.000000,85.531342 
	C199.885880,87.331383 198.492203,88.127617 196.730850,88.173378 
	C189.316452,88.365982 181.894058,88.939041 174.091705,87.558258 
	C170.226059,85.557381 171.293945,81.997192 171.134277,79.320503 
	C170.880707,75.069534 169.674759,71.216370 168.076904,67.002060 
	C167.752960,66.461205 167.630280,66.245834 167.344604,65.706894 
	C166.812149,64.578957 166.590576,63.705048 165.845657,62.736107 
	C165.504791,62.326633 165.369995,62.161366 165.039536,61.744541 
	C164.462143,60.989788 164.128693,60.450699 163.493668,59.724937 
	C163.006699,59.116364 162.776901,58.732647 162.439026,58.019051 
	C162.300140,54.947636 158.425934,54.500309 158.816650,51.305191 
z"/>
<path fill="#EE7538" opacity="1.000000" stroke="none" 
	d="
M1.276578,134.268265 
	C1.000000,119.979103 1.000000,105.958214 1.000000,91.468658 
	C1.237351,90.767044 1.446036,90.489021 1.720333,90.311989 
	C7.504537,86.578804 24.598206,87.457397 30.109440,92.165894 
	C30.749022,103.460381 30.440050,114.345497 30.386166,125.654091 
	C23.993233,135.209030 14.979769,137.473969 4.547797,136.139252 
	C3.314953,135.981522 2.368728,135.411743 1.276578,134.268265 
z"/>
<path fill="#ED7037" opacity="1.000000" stroke="none" 
	d="
M200.662262,119.671082 
	C201.000000,129.354233 201.000000,138.708450 201.000000,148.531342 
	C199.155731,151.483521 196.434525,151.351135 193.803375,151.332428 
	C185.129745,151.270752 176.545410,151.830856 168.184982,154.415878 
	C164.970154,155.409897 162.971924,153.084488 160.464142,151.144318 
	C158.284744,148.379410 159.885208,146.550537 161.464020,144.811554 
	C165.938812,139.882843 168.514908,134.074249 169.691315,127.165817 
	C169.932159,123.563187 170.660019,120.511337 172.553009,117.372299 
	C173.908798,116.520210 175.032532,115.738388 176.138275,116.104088 
	C182.894577,118.338486 189.906708,117.201820 196.779083,117.826088 
	C198.117218,117.947647 199.390442,118.257927 200.662262,119.671082 
z"/>
<path fill="#EF7739" opacity="1.000000" stroke="none" 
	d="
M201.000000,119.531342 
	C191.933640,119.732315 182.750717,121.063850 173.486725,118.013443 
	C171.812225,117.229652 171.641754,115.952446 171.535248,114.153786 
	C171.479858,106.418007 171.487991,99.166817 171.516708,91.915840 
	C171.523804,90.123550 171.271164,88.267792 172.693054,86.313416 
	C182.065765,86.002525 191.064224,86.001198 200.531342,85.999939 
	C201.000000,97.020897 201.000000,108.041786 201.000000,119.531342 
z"/>
<path fill="#ED6D36" opacity="1.000000" stroke="none" 
	d="
M1.000000,134.468628 
	C4.972216,133.996140 8.944607,134.012894 12.916570,133.979233 
	C14.743518,133.963745 16.696701,134.017258 17.615147,131.976593 
	C18.619532,129.744949 19.387596,128.132278 21.346146,131.439850 
	C22.192083,132.868454 22.907038,131.332825 23.358898,130.576721 
	C24.497776,128.671021 25.721552,126.929024 28.656479,126.991646 
	C29.406061,127.276260 29.684893,127.648956 29.882111,128.455292 
	C29.565273,130.338333 27.663008,131.990601 30.555487,133.468658 
	C32.325962,134.582764 32.948997,136.106064 33.532177,137.643860 
	C35.481552,142.784164 38.918827,146.539627 44.264946,148.935822 
	C44.844524,149.104889 45.071789,149.196213 45.613205,149.485931 
	C47.026356,151.013641 48.233040,152.285126 48.182198,154.495667 
	C45.006454,158.137787 41.816399,160.341965 37.425602,156.859589 
	C36.741589,156.317108 35.502869,156.141418 34.588833,156.272278 
	C23.729715,157.827148 12.816043,156.613434 1.468657,157.000000 
	C1.000000,149.645752 1.000000,142.291504 1.000000,134.468628 
z"/>
<path fill="#ED6934" opacity="1.000000" stroke="none" 
	d="
M159.329712,149.588379 
	C161.079041,149.841797 162.970795,149.770630 163.864395,150.680161 
	C166.194351,153.051651 168.002304,152.786407 170.076263,150.538712 
	C170.595810,149.975632 171.534531,149.373749 172.211212,149.445374 
	C181.518890,150.430389 190.765320,147.999985 200.531418,148.999847 
	C201.000000,154.688034 201.000000,160.376083 201.000000,166.532059 
	C185.574112,166.999939 170.145782,166.843674 154.723724,167.086792 
	C149.513733,167.168945 145.291809,166.000732 141.894470,161.052185 
	C141.530167,160.240540 141.509567,160.011383 141.584595,159.446930 
	C141.908676,158.698196 142.196609,158.330475 142.819733,157.791504 
	C143.317841,157.481308 143.530090,157.380295 144.078918,157.186218 
	C146.653900,156.989151 148.170059,155.772598 149.519424,153.666153 
	C150.296875,152.905746 150.927902,152.565170 151.943481,152.195694 
	C154.352982,152.221603 156.311584,151.960556 158.202606,150.301422 
	C158.655899,149.974274 158.836594,149.842468 159.329712,149.588379 
z"/>
<path fill="#F1823B" opacity="1.000000" stroke="none" 
	d="
M1.000000,45.468624 
	C13.970135,44.999386 26.940353,45.021675 39.910313,44.973797 
	C41.887005,44.966503 44.060360,45.098568 45.798351,44.357964 
	C49.706596,42.692554 49.602421,44.671768 49.069195,47.756927 
	C49.786980,49.305534 49.140488,50.256428 48.316078,51.500446 
	C48.008396,51.973381 47.869427,52.151482 47.491039,52.567429 
	C46.913673,53.079296 46.558620,53.328522 45.912792,53.694710 
	C45.115730,54.050900 44.591721,54.269424 43.862503,54.630219 
	C43.650711,54.756779 43.261715,55.033001 42.924133,55.374870 
	C42.479282,55.851105 42.372005,55.985466 42.094212,56.328770 
	C41.410675,57.114681 40.809219,57.586105 39.905022,58.150009 
	C39.104694,58.508286 38.515934,58.499252 37.722359,58.790123 
	C37.334816,59.033260 37.191551,59.152569 36.874714,59.501785 
	C36.158108,60.631374 35.726624,61.575047 35.489021,62.965027 
	C35.321968,63.525730 35.226479,63.744827 34.929619,64.266815 
	C32.549896,65.932213 32.933666,69.273491 29.930740,70.376350 
	C21.536562,71.787346 13.562098,69.286888 5.542264,70.198730 
	C4.026991,70.371017 2.604167,69.813133 1.286620,68.279472 
	C1.000000,60.645748 1.000000,53.291500 1.000000,45.468624 
z"/>
<path fill="#EF7E3B" opacity="1.000000" stroke="none" 
	d="
M1.000000,68.468620 
	C5.959905,67.867714 11.008799,67.052238 15.784823,67.076111 
	C20.064997,67.097527 24.851402,67.862556 29.712366,68.933990 
	C30.451210,69.368011 31.014946,69.735596 30.955935,70.195572 
	C30.051394,77.246140 31.272713,84.420036 29.370312,91.703842 
	C20.049810,90.116646 10.973866,91.055763 1.466936,91.000000 
	C1.000000,83.645744 1.000000,76.291496 1.000000,68.468620 
z"/>
<path fill="#DF825E" opacity="1.000000" stroke="none" 
	d="
M112.364716,176.313049 
	C108.719330,180.551651 103.737503,179.872375 98.471756,179.891159 
	C97.856094,179.894379 97.688957,179.895630 97.271782,179.915222 
	C96.654610,180.362961 96.191879,180.534607 95.317978,180.215118 
	C91.909294,178.668625 88.816147,177.355438 85.369774,175.961105 
	C84.188034,174.987823 83.359535,174.095673 82.457565,172.905518 
	C83.923386,171.062286 85.722763,171.258316 87.381599,172.159348 
	C94.048767,175.780701 101.094505,176.300461 108.418999,175.039017 
	C109.733002,174.812729 111.046936,175.010376 112.364716,176.313049 
z"/>
<path fill="#EC6835" opacity="1.000000" stroke="none" 
	d="
M95.183899,180.126770 
	C95.450691,179.964096 95.898956,179.946381 96.684479,179.931091 
	C96.541679,180.399261 96.020691,180.664474 95.183899,180.126770 
z"/>
<path fill="#FFFDFC" opacity="1.000000" stroke="none" 
	d="
M112.635818,176.641968 
	C102.153618,180.018387 92.298920,178.806320 82.738480,172.664032 
	C82.384094,172.607498 82.364319,172.545273 82.332413,172.552155 
	C80.392326,172.452667 79.024338,171.195801 77.433975,169.964233 
	C77.380707,169.629379 77.363388,169.571854 77.333359,169.572815 
	C76.625633,169.666046 75.995255,169.514145 75.369568,168.874557 
	C75.244728,168.696518 75.145859,168.847946 75.198685,168.772812 
	C74.290916,168.327530 73.376808,167.776047 72.287811,166.994415 
	C71.971733,166.437592 71.741661,166.238739 71.221359,166.057465 
	C70.580841,165.528015 69.967186,165.518417 69.229988,165.118103 
	C69.029282,164.908020 69.030685,164.976776 69.056061,164.953568 
	C67.927231,164.163376 66.441002,163.988892 65.192894,162.686890 
	C64.803429,162.341248 64.686165,162.212463 64.324127,161.992355 
	C62.041870,161.405273 60.244465,160.389282 58.347343,158.991913 
	C58.220409,158.669525 58.221371,158.744522 58.258148,158.737183 
	C57.919086,158.765381 57.604107,158.648544 57.189995,158.146362 
	C57.020737,157.936584 57.007557,157.996002 57.032043,157.977936 
	C53.175381,155.837692 48.995106,154.242050 45.251930,151.178696 
	C44.984207,150.951645 44.824345,150.741028 44.695126,150.713074 
	C39.108616,148.164764 35.542751,143.726425 32.989666,138.541992 
	C31.907124,136.343735 30.725283,134.241608 29.423819,131.745758 
	C29.438019,131.045776 29.491173,130.763046 29.654934,130.053192 
	C30.239841,113.568565 30.059095,97.507881 29.861897,81.450386 
	C29.785633,75.240280 30.398497,69.267838 33.714073,63.366638 
	C34.019997,63.010452 33.998180,63.000294 34.005951,63.010044 
	C35.262459,60.899456 35.816105,58.264797 38.662491,56.923347 
	C39.478264,56.305977 40.012142,55.883278 40.539764,54.943459 
	C40.629028,54.232197 40.724548,54.038055 41.107601,53.693474 
	C41.828030,53.514912 42.252953,53.440964 42.985401,53.245674 
	C43.764206,52.968761 44.227505,52.767345 44.838379,52.356865 
	C45.180420,51.825008 45.424992,51.546158 45.994755,51.256386 
	C46.269852,51.201527 46.158867,51.191681 46.156731,51.247353 
	C47.779697,50.062672 49.617245,49.215271 51.778305,48.238220 
	C52.072678,48.054668 52.015770,48.007225 52.029495,48.041626 
	C53.207298,46.639626 54.909882,46.105492 56.795601,45.235271 
	C57.076614,45.063179 57.027092,45.017597 57.026657,45.051247 
	C57.254990,44.767605 57.516361,44.479939 58.095909,44.285141 
	C58.381527,44.348446 58.264137,44.370338 58.279686,44.427986 
	C60.110943,42.700745 62.408955,41.658619 64.924049,40.363171 
	C65.275520,40.316811 65.184921,40.281212 65.204666,40.325699 
	C66.244987,38.700645 68.086670,38.343872 69.997665,37.472515 
	C70.318336,37.359798 70.242607,37.309559 70.246140,37.354862 
	C73.017319,35.083855 76.635666,33.862068 79.009796,30.480492 
	C79.413116,30.054295 79.599388,29.907814 80.111931,29.621681 
	C80.665169,29.416779 80.892128,29.351528 81.457840,29.184462 
	C82.028015,29.038786 82.259445,28.994928 82.831367,28.857788 
	C86.451263,26.246626 90.625137,26.179739 94.636520,24.750526 
	C95.435013,24.766180 95.883408,24.739618 96.640663,24.574917 
	C104.395790,23.112896 111.304665,24.224730 117.747269,29.205914 
	C118.370071,29.685799 118.661392,29.912086 119.222099,30.213568 
	C119.877243,30.236322 120.249123,30.283104 120.883835,30.512245 
	C121.532860,30.685301 121.875778,30.848883 122.375008,31.285557 
	C122.619881,31.687693 122.684959,31.866961 122.913589,32.280952 
	C123.242653,32.621845 123.408180,32.728024 123.863556,32.888977 
	C127.611641,34.793949 131.717117,35.451069 134.709320,38.838150 
	C134.923126,39.121902 134.951355,39.043312 134.916153,39.065773 
	C136.451187,39.910133 138.209274,40.380169 139.788940,41.845257 
	C140.006638,42.098312 140.114182,42.299213 140.222534,42.264000 
	C144.956711,44.230560 149.389709,46.577454 153.689819,49.849213 
	C153.915390,50.132431 153.962402,50.061985 153.922363,50.075790 
	C154.412292,50.412544 155.033310,50.486637 155.773224,50.966778 
	C155.949310,51.216599 155.911453,51.124161 155.865891,51.144615 
	C158.976257,52.184372 161.384644,54.254444 163.719864,56.963905 
	C163.921417,57.567818 164.065536,57.804867 164.523010,58.044540 
	C165.842087,58.534786 166.119202,59.611717 166.785385,60.783844 
	C166.962540,61.044785 167.003296,61.006462 166.978806,61.018749 
	C167.825165,61.674568 168.178131,62.658745 168.745621,63.863983 
	C168.861572,64.149887 168.892166,64.085663 168.857269,64.078766 
	C172.424377,71.089188 172.546677,78.565376 172.340027,86.263145 
	C172.096634,95.329262 172.097702,104.421509 172.457855,113.947922 
	C172.470322,118.666939 172.578049,122.938004 172.193054,127.599472 
	C170.439468,136.373276 167.080429,143.711014 159.855530,149.223358 
	C159.642105,149.466095 159.589966,149.474594 159.591949,149.500839 
	C158.443466,152.462479 155.536362,152.706390 152.776489,153.784515 
	C151.978302,153.988525 151.546600,154.145416 151.007202,154.515625 
	C149.327087,156.954147 146.733292,157.478577 144.173248,158.728836 
	C143.860291,158.877289 143.929749,158.906967 143.943420,158.871765 
	C143.620331,159.413544 143.018158,159.483704 142.200897,159.778900 
	C141.948883,159.933456 141.976013,159.995636 141.954971,159.967346 
	C141.758881,160.319153 141.480499,160.594940 140.795380,160.792908 
	C139.163437,160.909195 138.250061,161.658798 137.262512,162.861053 
	C136.570969,163.475784 135.963348,163.484299 135.157410,163.781616 
	C134.900101,163.917603 134.976303,163.971497 134.953064,163.931030 
	C131.890488,166.850601 127.839050,168.189758 124.074081,170.642670 
	C123.767937,170.807388 123.842209,170.815735 123.834816,170.779114 
	C123.740196,170.948837 123.652977,171.155182 123.284637,171.177429 
	C122.062302,171.370102 121.121094,171.746841 119.963348,172.350098 
	C118.429718,174.311325 116.624840,175.199112 114.230927,175.765091 
	C113.932823,175.948441 113.981125,175.993195 113.976898,175.960541 
	C113.769135,176.223602 113.519562,176.472214 112.949921,176.663834 
	C112.682945,176.661148 112.653717,176.633820 112.635818,176.641968 
z"/>
<path fill="#E7955D" opacity="1.000000" stroke="none" 
	d="
M117.959480,29.163050 
	C111.788582,25.977983 105.145157,23.951550 97.406769,24.494314 
	C100.002388,21.732664 103.677673,23.498058 107.483475,23.034151 
	C111.212631,25.009682 115.524536,25.240473 117.959480,29.163050 
z"/>
<path fill="#EC8D4B" opacity="1.000000" stroke="none" 
	d="
M134.908875,38.743263 
	C131.169769,37.793129 127.990341,35.424007 124.378883,33.186531 
	C128.071716,34.081165 132.929382,33.357285 134.908875,38.743263 
z"/>
<path fill="#EC8D4B" opacity="1.000000" stroke="none" 
	d="
M153.829987,49.798973 
	C149.234360,48.237686 145.116226,45.338722 140.568054,42.506332 
	C145.591171,43.178509 150.154602,45.419853 153.829987,49.798973 
z"/>
<path fill="#EC8D4B" opacity="1.000000" stroke="none" 
	d="
M122.478531,32.206192 
	C121.915909,31.794182 121.593025,31.663691 121.111115,31.320549 
	C120.820068,30.917469 120.688049,30.727036 120.778732,30.269739 
	C121.645599,29.499500 122.230949,28.878689 122.947495,28.519821 
	C124.069084,27.958097 125.426582,27.974188 125.980316,29.157541 
	C126.904472,31.132488 124.623703,30.909172 123.598465,31.917622 
	C123.132347,32.220078 122.925316,32.353893 122.478531,32.206192 
z"/>
<path fill="#EC8D4B" opacity="1.000000" stroke="none" 
	d="
M163.849091,56.914719 
	C161.324249,55.415253 158.759659,53.567554 156.007690,51.442467 
	C156.610016,51.114784 157.399719,51.064491 158.584030,51.010498 
	C160.241882,53.161533 163.365601,53.699718 163.849091,56.914719 
z"/>
<path fill="#EC8D4B" opacity="1.000000" stroke="none" 
	d="
M139.893066,41.764591 
	C138.424820,41.277527 136.843018,40.456745 135.071075,39.362099 
	C136.895355,39.071259 138.743912,39.401085 139.893066,41.764591 
z"/>
<path fill="#EC8D4B" opacity="1.000000" stroke="none" 
	d="
M155.746918,50.988235 
	C155.377731,51.010212 154.806168,50.803825 154.058472,50.343513 
	C154.436401,50.313019 154.990448,50.536446 155.746918,50.988235 
z"/>
<path fill="#E7955D" opacity="1.000000" stroke="none" 
	d="
M120.621246,30.060080 
	C120.995285,30.187136 120.989151,30.371397 120.967545,30.831779 
	C120.587967,30.985657 120.223846,30.863413 119.675606,30.514965 
	C119.741341,30.231604 119.991203,30.174444 120.621246,30.060080 
z"/>
<path fill="#E7955D" opacity="1.000000" stroke="none" 
	d="
M122.317451,32.096237 
	C122.422241,31.945177 122.605698,31.965681 123.064270,32.036224 
	C123.339386,32.086266 123.224045,32.310600 123.150589,32.413136 
	C122.802223,32.564621 122.575226,32.481998 122.317451,32.096237 
z"/>
<path fill="#DF825E" opacity="1.000000" stroke="none" 
	d="
M45.134178,151.227478 
	C49.209732,152.515884 52.828617,155.187454 56.884190,157.668182 
	C54.269726,157.027878 51.482918,156.095886 48.366882,155.000580 
	C47.119816,153.725952 46.201981,152.614624 45.134178,151.227478 
z"/>
<path fill="#DF825E" opacity="1.000000" stroke="none" 
	d="
M77.404114,169.987366 
	C78.893860,170.433319 80.407021,171.237274 82.110336,172.300110 
	C80.200516,172.868240 78.320374,172.693481 77.404114,169.987366 
z"/>
<path fill="#DF825E" opacity="1.000000" stroke="none" 
	d="
M58.350014,159.004868 
	C60.038074,159.569763 61.855743,160.470001 63.876389,161.635620 
	C61.725094,162.113846 59.710217,161.584518 58.350014,159.004868 
z"/>
<path fill="#DF825E" opacity="1.000000" stroke="none" 
	d="
M65.031998,162.771851 
	C66.190681,163.119537 67.460655,163.769043 68.906036,164.674469 
	C67.402847,165.087494 66.064415,164.523163 65.031998,162.771851 
z"/>
<path fill="#DF825E" opacity="1.000000" stroke="none" 
	d="
M72.283234,167.018265 
	C73.083099,167.152679 74.031204,167.591629 75.164856,168.288422 
	C74.111435,168.773010 73.140526,168.360260 72.283234,167.018265 
z"/>
<path fill="#DF825E" opacity="1.000000" stroke="none" 
	d="
M69.218796,165.131592 
	C69.585159,165.097168 70.141037,165.286316 70.847427,165.736603 
	C70.468056,165.783554 69.938187,165.569366 69.218796,165.131592 
z"/>
<path fill="#DF825E" opacity="1.000000" stroke="none" 
	d="
M75.493195,168.806885 
	C75.880249,168.734818 76.416901,168.924545 77.128448,169.344025 
	C76.749825,169.405411 76.196312,169.237045 75.493195,168.806885 
z"/>
<path fill="#DF825E" opacity="1.000000" stroke="none" 
	d="
M57.177044,158.147202 
	C57.354572,158.045776 57.688404,158.154984 58.158585,158.497009 
	C57.974400,158.605850 57.653873,158.481827 57.177044,158.147202 
z"/>
<path fill="#EE8942" opacity="1.000000" stroke="none" 
	d="
M83.334183,29.835848 
	C82.996941,30.100601 82.866257,30.270618 82.765190,30.234810 
	C82.194695,30.146626 81.780113,30.273489 81.228592,30.861147 
	C81.036774,31.142666 81.061432,31.076136 81.093674,31.090935 
	C79.286568,31.773594 77.546112,32.682114 75.358940,33.193291 
	C75.435432,29.790548 75.885368,26.738722 80.551453,27.529272 
	C83.510468,28.030602 83.285088,24.123875 85.800125,23.226500 
	C89.033218,26.624283 86.176300,28.032097 83.334183,29.835848 
z"/>
<path fill="#E7955D" opacity="1.000000" stroke="none" 
	d="
M83.353905,30.030289 
	C84.393723,28.188108 86.543587,26.642107 86.077530,23.435629 
	C88.747078,24.304468 91.469635,25.126070 94.714470,24.650213 
	C91.228035,26.515156 87.469452,28.237566 83.353905,30.030289 
z"/>
<path fill="#E7955D" opacity="1.000000" stroke="none" 
	d="
M74.779655,33.276531 
	C76.633972,31.929829 78.275986,30.876106 80.751648,31.081348 
	C78.186951,33.900837 74.416039,35.325050 70.606369,37.336655 
	C70.770676,35.098919 73.098969,34.787575 74.779655,33.276531 
z"/>
<path fill="#E7955D" opacity="1.000000" stroke="none" 
	d="
M64.902847,40.271454 
	C63.524521,42.199322 61.106537,43.029167 58.634624,44.397583 
	C59.758572,42.165604 61.590446,40.385033 64.902847,40.271454 
z"/>
<path fill="#E7955D" opacity="1.000000" stroke="none" 
	d="
M69.949402,37.299080 
	C69.200386,38.868164 67.505318,39.495861 65.560989,40.313503 
	C65.897415,38.242718 67.334785,37.178394 69.949402,37.299080 
z"/>
<path fill="#E7955D" opacity="1.000000" stroke="none" 
	d="
M56.712559,45.057594 
	C55.985413,46.581337 54.242435,47.119640 52.375061,48.022919 
	C52.630550,45.861065 54.376217,45.295216 56.712559,45.057594 
z"/>
<path fill="#E7955D" opacity="1.000000" stroke="none" 
	d="
M51.695705,48.032436 
	C50.617958,49.580910 48.710541,50.361298 46.503548,51.263031 
	C46.993114,50.394875 47.831635,49.486725 48.865501,48.339306 
	C49.813480,48.070091 50.566105,48.040146 51.695705,48.032436 
z"/>
<path fill="#E7955D" opacity="1.000000" stroke="none" 
	d="
M58.122391,44.403614 
	C58.112389,44.579407 57.843254,44.810368 57.300167,45.063110 
	C57.305233,44.876190 57.584244,44.667488 58.122391,44.403614 
z"/>
<path fill="#E57446" opacity="1.000000" stroke="none" 
	d="
M124.135620,170.772491 
	C126.580719,167.501083 130.780319,166.325424 134.579926,163.944122 
	C132.797623,168.218475 128.313782,168.965363 124.135620,170.772491 
z"/>
<path fill="#EA6833" opacity="1.000000" stroke="none" 
	d="
M140.305954,174.195999 
	C139.699036,171.241852 141.638031,172.201752 142.862518,172.362244 
	C143.639664,172.464111 144.539886,173.216614 143.983566,174.067856 
	C143.106674,175.409668 141.753036,174.926926 140.305954,174.195999 
z"/>
<path fill="#DF825E" opacity="1.000000" stroke="none" 
	d="
M114.310867,175.974335 
	C115.647636,174.874268 117.362457,173.800079 119.412048,172.651260 
	C118.979568,175.075089 117.080452,175.901398 114.310867,175.974335 
z"/>
<path fill="#EA6932" opacity="1.000000" stroke="none" 
	d="
M140.992645,168.744568 
	C140.054962,168.496811 139.572662,168.091339 140.341690,167.468979 
	C140.612198,167.250046 141.351196,167.248047 141.625351,167.464645 
	C142.395020,168.072723 141.935898,168.489960 140.992645,168.744568 
z"/>
<path fill="#E57446" opacity="1.000000" stroke="none" 
	d="
M135.194183,163.895996 
	C135.397858,163.586121 135.895599,163.254623 136.701523,162.976501 
	C136.502563,163.311356 135.995422,163.592865 135.194183,163.895996 
z"/>
<path fill="#E57446" opacity="1.000000" stroke="none" 
	d="
M123.117172,171.072647 
	C123.003510,170.993347 123.395569,170.802567 123.611496,170.772522 
	C123.744865,171.061493 123.545998,171.197983 123.117172,171.072647 
z"/>
<path fill="#DF825E" opacity="1.000000" stroke="none" 
	d="
M112.939178,176.623016 
	C112.933449,176.422180 113.183945,176.183212 113.703560,175.936066 
	C113.713585,176.146881 113.454491,176.365891 112.939178,176.623016 
z"/>
<path fill="#ED7037" opacity="1.000000" stroke="none" 
	d="
M140.859833,160.871277 
	C140.777039,160.554794 141.062195,160.290314 141.640640,159.982452 
	C141.944153,160.117676 141.954391,160.296295 141.965149,160.743439 
	C141.719711,160.982407 141.473740,160.952835 140.859833,160.871277 
z"/>
<path fill="#EC8D4B" opacity="1.000000" stroke="none" 
	d="
M172.171631,114.337830 
	C171.834518,102.939598 171.680649,91.888916 171.669250,80.838089 
	C171.663574,75.331589 171.092773,69.965508 168.871933,64.461967 
	C172.552170,67.519691 172.246872,72.331718 172.914993,76.738678 
	C173.327713,79.461090 173.015503,82.293404 173.048035,85.540115 
	C173.030029,95.027672 172.992767,104.051491 172.942841,113.544693 
	C172.758026,114.237816 172.585861,114.461571 172.171631,114.337830 
z"/>
<path fill="#EC8D4B" opacity="1.000000" stroke="none" 
	d="
M166.944275,60.698559 
	C166.276749,60.269512 165.590958,59.494236 164.815002,58.416969 
	C166.010605,58.317627 166.761963,59.046070 166.944275,60.698559 
z"/>
<path fill="#EC8D4B" opacity="1.000000" stroke="none" 
	d="
M168.875183,63.806911 
	C168.250290,63.318535 167.638992,62.487183 166.991013,61.343433 
	C168.180679,61.379608 168.842224,62.177277 168.875183,63.806911 
z"/>
<path fill="#E7955D" opacity="1.000000" stroke="none" 
	d="
M33.695480,63.111206 
	C31.333611,69.199982 30.593115,75.664070 30.701366,82.387512 
	C30.957279,98.282204 30.912798,114.181732 30.945787,130.547180 
	C29.697401,131.344284 29.336382,130.551208 29.112701,129.302460 
	C29.136105,128.525360 29.113781,128.082031 29.059978,127.306763 
	C29.034258,115.623512 29.040016,104.272209 29.035147,92.449951 
	C29.300869,84.592377 27.937256,77.133553 30.051117,69.419479 
	C31.427172,67.212204 30.969772,64.406731 33.695480,63.111206 
z"/>
<path fill="#EE803C" opacity="1.000000" stroke="none" 
	d="
M171.842361,114.448868 
	C172.096588,113.995651 172.263596,114.000969 172.680405,114.010178 
	C172.966263,115.077744 173.002335,116.141418 173.062729,117.604019 
	C172.718094,121.097588 173.573425,124.283104 172.174789,127.654388 
	C171.887634,123.629829 171.821381,119.268616 171.842361,114.448868 
z"/>
<path fill="#ED6934" opacity="1.000000" stroke="none" 
	d="
M167.829529,147.466339 
	C166.775803,147.412689 166.462830,146.908646 166.906937,146.225510 
	C167.090134,145.943710 167.843613,145.703354 168.087372,145.852722 
	C168.783752,146.279449 168.628799,146.888168 167.829529,147.466339 
z"/>
<path fill="#DF825E" opacity="1.000000" stroke="none" 
	d="
M29.874798,132.750549 
	C31.483723,132.825989 31.865780,133.891052 32.233688,135.010925 
	C34.365910,141.501175 38.697948,146.263290 44.363827,150.407043 
	C38.310787,149.337982 35.319141,144.436020 32.426819,139.465317 
	C31.690908,138.200607 31.201492,136.792450 30.381290,135.181824 
	C29.250090,134.445786 29.243696,133.732742 29.874798,132.750549 
z"/>
<path fill="#EE7538" opacity="1.000000" stroke="none" 
	d="
M30.420185,132.242538 
	C30.122110,133.206833 30.117990,133.827866 30.138815,134.681168 
	C25.958080,134.117188 26.339207,131.955139 28.820625,129.118484 
	C29.609488,129.525620 30.060545,130.082550 30.706699,130.827271 
	C30.839241,131.309799 30.776688,131.604538 30.420185,132.242538 
z"/>
<path fill="#E96D34" opacity="1.000000" stroke="none" 
	d="
M171.593124,157.725891 
	C171.640533,156.079254 172.270523,155.197739 173.738052,155.630661 
	C174.676163,155.907394 174.908203,156.811386 174.487442,157.630676 
	C173.796295,158.976334 172.783752,158.985519 171.593124,157.725891 
z"/>
<path fill="#ED7037" opacity="1.000000" stroke="none" 
	d="
M152.844269,153.861572 
	C154.585831,152.460205 156.761673,151.088745 159.265717,149.622192 
	C159.224609,153.493652 156.491959,154.040421 152.844269,153.861572 
z"/>
<path fill="#ED7037" opacity="1.000000" stroke="none" 
	d="
M144.242416,158.882935 
	C145.581055,156.913193 148.014145,156.063980 150.549515,154.778015 
	C150.019638,157.943527 147.326157,158.422180 144.242416,158.882935 
z"/>
<path fill="#ED7037" opacity="1.000000" stroke="none" 
	d="
M142.236710,159.875488 
	C142.413223,159.573761 142.877548,159.214066 143.649475,158.845459 
	C143.479568,159.163559 143.002045,159.490540 142.236710,159.875488 
z"/>
<path fill="#E7955D" opacity="1.000000" stroke="none" 
	d="
M38.704262,56.673988 
	C37.487629,58.708813 36.030876,60.688953 34.293922,62.844444 
	C34.324783,61.598320 34.635845,60.176846 35.025314,58.398247 
	C35.201504,57.832352 35.299282,57.623581 35.706963,57.261383 
	C36.832623,56.945068 37.648384,56.782185 38.704262,56.673988 
z"/>
<path fill="#F08741" opacity="1.000000" stroke="none" 
	d="
M35.940090,56.867828 
	C35.843803,57.343109 35.649937,57.559639 35.269493,57.899330 
	C34.590881,57.399601 33.943653,56.749825 34.802292,55.965782 
	C34.885292,55.889999 35.497025,56.393250 35.940090,56.867828 
z"/>
<path fill="#F08741" opacity="1.000000" stroke="none" 
	d="
M40.346680,54.268776 
	C39.836624,53.348454 39.192146,52.659916 39.927048,51.951832 
	C39.981689,51.899185 40.557919,52.387882 40.962395,52.848633 
	C41.273544,53.241245 41.513973,53.410145 41.697525,54.016106 
	C41.640648,54.453159 41.570683,54.628941 41.476131,54.625992 
	C41.136978,54.578331 40.892372,54.533623 40.346680,54.268776 
z"/>
<path fill="#E7955D" opacity="1.000000" stroke="none" 
	d="
M41.903503,54.380566 
	C41.529846,54.226906 41.419044,54.000648 41.170677,53.423363 
	C41.537861,53.074131 42.042599,53.075924 42.924126,53.123947 
	C42.922722,53.549446 42.544540,53.928707 41.903503,54.380566 
z"/>
<path fill="#E7955D" opacity="1.000000" stroke="none" 
	d="
M46.008110,51.286598 
	C46.026058,51.476128 45.782261,51.750725 45.262207,52.086559 
	C45.239418,51.889084 45.492889,51.630375 46.008110,51.286598 
z"/>
<path fill="#E7955D" opacity="1.000000" stroke="none" 
	d="
M40.150558,54.226341 
	C40.272514,54.134212 40.499432,54.219791 41.053963,54.464203 
	C41.381580,54.623039 41.168922,54.930660 40.986618,54.973488 
	C40.576687,54.852287 40.393753,54.648197 40.150558,54.226341 
z"/>
<path fill="#ED7D3E" opacity="1.000000" stroke="none" 
	d="
M82.822342,95.772430 
	C83.232582,95.389786 83.403069,95.282181 83.870499,95.117371 
	C88.062737,92.806114 88.745461,88.967476 88.233665,85.153175 
	C87.509514,79.756310 88.322899,74.541855 89.318596,69.372627 
	C91.208824,59.559444 103.213707,53.508121 110.413483,53.088173 
	C111.867325,53.003372 113.456940,53.521572 113.570969,54.916664 
	C113.791565,57.615601 114.316963,60.568405 112.080544,62.821156 
	C111.399368,63.507317 110.383842,63.851814 109.354538,64.817978 
	C109.076302,65.118240 109.041534,65.042419 109.078163,65.062363 
	C104.859627,68.040009 106.640076,72.386742 106.626060,76.627388 
	C106.770943,79.352623 106.823120,81.749626 106.799538,84.590195 
	C106.723785,85.033768 106.588203,85.498985 106.643372,85.734909 
	C106.685440,86.738106 106.672340,87.505386 106.493805,88.622131 
	C105.364128,90.368591 105.096840,92.058960 104.302155,93.864792 
	C104.209946,94.163445 104.143890,94.142899 104.161652,94.113220 
	C104.017303,94.180328 103.855194,94.277115 103.721954,94.655640 
	C103.762154,95.276611 103.637886,95.555412 103.171936,95.887955 
	C102.767731,96.243668 102.557823,96.474464 102.174164,96.863510 
	C101.816521,97.300911 101.620834,97.569321 101.180290,97.910217 
	C100.168053,98.653419 99.245277,98.900856 97.896278,98.972275 
	C96.538956,99.036728 95.436028,98.326088 94.590042,98.829689 
	C90.579506,101.217110 86.927719,99.938820 83.038689,97.710083 
	C82.550499,97.006058 82.491028,96.537628 82.822342,95.772430 
z"/>
<path fill="#ED7539" opacity="1.000000" stroke="none" 
	d="
M82.534859,96.886375 
	C87.389580,98.222824 92.074402,95.089920 96.752846,97.808792 
	C97.394600,98.452271 97.570503,98.968681 97.414192,99.949150 
	C97.276985,100.346786 97.255058,100.241760 97.308228,100.234634 
	C95.322914,101.214294 96.260063,102.404442 97.380829,103.762627 
	C98.283440,104.397995 98.894127,104.927689 99.925018,105.348602 
	C100.381111,105.548767 100.564232,105.627243 101.043320,105.664276 
	C101.339287,105.622841 101.281273,105.879562 101.302139,105.754028 
	C106.099876,112.936378 106.243065,121.235016 106.081207,129.479034 
	C106.009186,133.147278 104.968399,136.724747 109.028389,139.035950 
	C110.140236,139.668884 110.271820,140.940811 109.883125,142.150436 
	C109.482086,143.398468 108.324623,144.442627 107.308113,144.048218 
	C102.169159,142.054306 96.487656,142.023102 91.216980,139.294373 
	C90.389069,138.203476 89.848175,137.372391 89.306015,136.237976 
	C89.476089,135.639374 89.497726,135.333496 89.230682,134.825714 
	C89.091690,134.634369 88.745941,134.312256 88.755013,134.076141 
	C88.611320,133.451401 88.458565,133.062744 88.280731,132.360504 
	C88.385437,130.812866 87.855637,129.616531 88.093369,128.013000 
	C88.771416,123.252037 88.579559,118.848846 88.120132,114.116852 
	C87.743607,113.365517 87.571510,112.922226 87.342545,112.122765 
	C87.056419,111.351143 86.855255,110.928085 86.431412,110.226593 
	C86.237946,109.934372 86.137711,110.009651 86.100128,109.959488 
	C85.791962,109.693359 85.581802,109.430740 85.328690,108.889908 
	C85.043495,108.374619 84.817505,108.132980 84.318817,107.811775 
	C83.779503,107.540871 83.456764,107.413635 82.862831,107.299896 
	C82.598343,107.296570 82.275772,107.265251 82.138824,107.178627 
	C80.456413,105.886810 80.974174,104.032585 80.364502,102.220627 
	C80.139534,100.915848 80.099495,99.865295 80.124695,98.424942 
	C80.724228,97.438965 81.365143,97.014954 82.534859,96.886375 
z"/>
<path fill="#E8743F" opacity="1.000000" stroke="none" 
	d="
M90.966324,139.378189 
	C91.744888,139.176773 92.783150,139.713669 93.339500,139.398865 
	C97.877090,136.831329 101.469147,139.439209 105.254707,141.298645 
	C106.183205,141.754715 107.330971,143.120712 108.306740,141.827499 
	C109.211517,140.628342 107.962837,139.730835 107.045753,139.045258 
	C103.997025,136.766159 102.990456,134.155396 104.997414,130.540329 
	C105.947235,128.829437 105.943161,126.777603 105.451546,124.729134 
	C103.992821,118.650818 102.691032,112.534843 101.325439,106.031036 
	C105.553352,108.578735 106.749718,112.962494 106.901268,117.754730 
	C107.053223,122.559792 107.166855,127.373695 107.044327,132.177261 
	C106.955910,135.642944 108.611092,137.637527 111.537857,139.060272 
	C114.285255,140.395844 115.927811,146.078491 114.314117,149.289886 
	C112.754501,152.393661 109.963203,150.762970 107.766762,150.280945 
	C100.951965,148.785431 94.941025,145.857056 90.966324,139.378189 
z"/>
<path fill="#EB8648" opacity="1.000000" stroke="none" 
	d="
M109.433670,65.032730 
	C109.438736,62.868874 111.810013,61.759434 111.766098,58.956944 
	C111.690056,54.104759 110.361389,52.915279 105.457771,54.826176 
	C94.281792,59.181355 89.407967,66.168228 89.002907,78.297989 
	C88.865067,82.426010 89.470551,86.589195 88.329811,90.676506 
	C87.782402,92.637939 87.418175,94.635513 84.533730,95.018425 
	C87.001556,92.120377 87.878136,88.568893 87.673645,84.572662 
	C87.428162,79.775169 87.499443,74.990166 88.279472,70.209480 
	C90.221046,58.309860 102.736809,52.903713 111.659195,52.173645 
	C112.891815,52.072792 113.835327,52.437931 114.404198,53.755531 
	C116.227173,57.977814 114.197296,63.012974 109.433670,65.032730 
z"/>
<path fill="#DF926E" opacity="1.000000" stroke="none" 
	d="
M88.941956,127.616600 
	C88.808830,129.192123 88.701653,130.321991 88.425072,131.749390 
	C86.579903,127.114471 87.720932,122.028450 87.416687,117.021729 
	C87.308434,115.240288 86.957726,113.473579 86.655960,111.287117 
	C86.842041,110.761887 87.089844,110.649696 87.633446,110.818573 
	C87.997124,111.527069 88.065010,111.954498 88.201111,112.699364 
	C89.749924,117.673264 88.690369,122.455101 88.941956,127.616600 
z"/>
<path fill="#EB8648" opacity="1.000000" stroke="none" 
	d="
M106.804550,76.530716 
	C105.925873,72.826355 103.198204,68.425476 108.746506,65.108513 
	C107.333549,68.547005 106.689674,72.241196 106.804550,76.530716 
z"/>
<path fill="#E8743F" opacity="1.000000" stroke="none" 
	d="
M97.262001,105.231598 
	C94.680222,103.611725 94.148346,102.095024 97.014038,100.293076 
	C96.174423,102.905785 99.136528,102.786148 100.151543,104.377892 
	C100.301277,104.888962 100.272285,105.122177 99.901077,105.435883 
	C98.875443,105.684616 98.192635,105.829811 97.262001,105.231598 
z"/>
<path fill="#DF926E" opacity="1.000000" stroke="none" 
	d="
M80.052338,102.300659 
	C82.093002,102.944138 81.239632,104.985970 81.951920,106.768433 
	C78.723534,106.811287 80.190613,104.319450 80.052338,102.300659 
z"/>
<path fill="#EB8648" opacity="1.000000" stroke="none" 
	d="
M104.472244,93.976517 
	C103.975899,92.296913 104.380196,90.641418 106.068977,89.148209 
	C106.512596,90.814278 105.561508,92.281403 104.472244,93.976517 
z"/>
<path fill="#E8743F" opacity="1.000000" stroke="none" 
	d="
M97.593750,100.289345 
	C97.205795,99.826859 97.134605,99.306923 97.043579,98.394623 
	C98.066650,97.999428 99.109550,97.996590 100.543945,97.988235 
	C100.329948,99.274185 99.008026,99.602142 97.593750,100.289345 
z"/>
<path fill="#DF926E" opacity="1.000000" stroke="none" 
	d="
M82.956940,96.709045 
	C82.249596,97.254379 81.578575,97.557961 80.548744,97.948349 
	C79.562057,95.929550 81.228516,95.915184 82.771072,95.510002 
	C83.101418,95.825104 83.078476,96.148407 82.956940,96.709045 
z"/>
<path fill="#DF926E" opacity="1.000000" stroke="none" 
	d="
M82.790543,107.545296 
	C83.117722,107.246040 83.637108,107.195503 84.548874,107.156281 
	C85.148232,107.257950 85.355186,107.348312 85.694733,107.750381 
	C85.904900,108.470192 85.982475,108.878288 86.061302,109.597855 
	C85.035950,109.204224 84.009354,108.499123 82.790543,107.545296 
z"/>
<path fill="#E8743F" opacity="1.000000" stroke="none" 
	d="
M89.007133,134.124481 
	C89.431793,134.508240 89.481667,135.043457 89.418152,135.756683 
	C89.222427,135.788391 89.140106,135.642090 89.029465,135.245575 
	C88.878220,134.755554 88.755280,134.515747 89.007133,134.124481 
z"/>
<path fill="#ED7D3E" opacity="1.000000" stroke="none" 
	d="
M87.765434,110.893066 
	C87.633057,111.042053 87.339111,110.974747 86.820816,110.885895 
	C86.490158,110.734276 86.386093,110.594475 86.259979,110.194519 
	C86.692505,110.185089 87.147064,110.435799 87.765434,110.893066 
z"/>
<path fill="#EB8648" opacity="1.000000" stroke="none" 
	d="
M106.771446,85.738358 
	C106.517845,85.751129 106.475204,85.509216 106.647202,85.139427 
	C106.723785,85.033768 106.844360,85.505890 106.771446,85.738358 
z"/>
<path fill="#E7955D" opacity="1.000000" stroke="none" 
	d="
M81.359032,31.084770 
	C81.373932,30.889244 81.711098,30.635822 82.356194,30.290703 
	C82.336510,30.474960 82.008904,30.750917 81.359032,31.084770 
z"/>
<path fill="#DF926E" opacity="1.000000" stroke="none" 
	d="
M89.232536,133.916168 
	C89.324272,134.145584 89.266624,134.318161 89.105072,134.743042 
	C88.763199,134.803284 88.643333,134.554337 88.702820,134.044281 
	C88.764084,133.840042 89.083160,133.859314 89.232536,133.916168 
z"/>
<path fill="#E8743F" opacity="1.000000" stroke="none" 
	d="
M101.249390,105.392242 
	C101.118050,105.692963 100.896805,105.763077 100.337738,105.917328 
	C99.817741,105.858231 99.635567,105.714996 99.693245,105.320175 
	C99.933098,105.068573 100.131805,104.862373 100.231033,104.759056 
	C100.676888,104.709328 100.953300,104.877960 101.249390,105.392242 
z"/>
<path fill="#E8743F" opacity="1.000000" stroke="none" 
	d="
M102.261246,96.960815 
	C102.194420,96.777237 102.396683,96.538994 102.792412,96.159950 
	C102.813995,96.297806 102.662148,96.593475 102.261246,96.960815 
z"/>
<path fill="#E8743F" opacity="1.000000" stroke="none" 
	d="
M103.931488,94.760818 
	C103.658554,94.651634 103.722786,94.412811 104.061478,94.152222 
	C104.156990,94.250450 104.134567,94.417351 103.931488,94.760818 
z"/>
<path fill="#E8743F" opacity="1.000000" stroke="none" 
	d="
M89.140854,127.708130 
	C87.456230,123.414711 88.566231,118.641037 88.246056,113.477753 
	C91.603195,117.568863 89.817360,122.512444 89.140854,127.708130 
z"/>
<path fill="#ED7D3E" opacity="1.000000" stroke="none" 
	d="
M86.137161,107.908356 
	C85.597122,107.897919 85.388664,107.709679 85.071609,107.332474 
	C85.079758,106.879074 85.184029,106.567139 85.362793,106.306229 
	C86.043388,105.312889 86.221512,103.755226 87.928856,103.893929 
	C88.164520,103.913078 88.504272,104.240463 88.571793,104.486618 
	C89.081573,106.345024 87.679794,107.002571 86.137161,107.908356 
z"/>
<path fill="#ED7D3E" opacity="1.000000" stroke="none" 
	d="
M99.567032,105.051758 
	C99.933098,105.068573 99.969246,105.534805 99.984581,105.768135 
	C98.969170,106.365044 97.904991,106.920364 97.092201,105.254990 
	C97.734268,105.011383 98.467613,105.023163 99.567032,105.051758 
z"/>
</svg>